<svg width="40" height="40" viewBox="0 0 40 40" fill="none" xmlns="http://www.w3.org/2000/svg">
<path d="M33.5998 7.00012H6.39985C4.52985 7.00012 3.01685 8.46262 3.01685 10.2501L2.99985 29.7501C2.99985 31.5376 4.52985 33.0001 6.39985 33.0001H33.5998C35.4698 33.0001 36.9998 31.5376 36.9998 29.7501V10.2501C36.9998 8.46262 35.4698 7.00012 33.5998 7.00012ZM32.9198 13.9064L20.9008 21.0889C20.3568 21.4139 19.6428 21.4139 19.0988 21.0889L7.07985 13.9064C6.90938 13.8149 6.76011 13.6913 6.64106 13.5431C6.52201 13.3949 6.43565 13.2251 6.38723 13.0441C6.3388 12.8631 6.3293 12.6745 6.35931 12.4899C6.38932 12.3052 6.45822 12.1283 6.56183 11.9699C6.66543 11.8114 6.8016 11.6747 6.96208 11.568C7.12257 11.4613 7.30403 11.3868 7.49549 11.3491C7.68695 11.3114 7.88443 11.3112 8.07597 11.3485C8.26751 11.3859 8.44914 11.46 8.60985 11.5664L19.9998 18.3751L31.3898 11.5664C31.5506 11.46 31.7322 11.3859 31.9237 11.3485C32.1153 11.3112 32.3127 11.3114 32.5042 11.3491C32.6957 11.3868 32.8771 11.4613 33.0376 11.568C33.1981 11.6747 33.3343 11.8114 33.4379 11.9699C33.5415 12.1283 33.6104 12.3052 33.6404 12.4899C33.6704 12.6745 33.6609 12.8631 33.6125 13.0441C33.564 13.2251 33.4777 13.3949 33.3586 13.5431C33.2396 13.6913 33.0903 13.8149 32.9198 13.9064Z" fill="#F7FBFB"/>
</svg>
