<svg width="34" height="34" viewBox="0 0 34 34" fill="none" xmlns="http://www.w3.org/2000/svg">
<path d="M17 0.399902C7.83333 0.399902 0.333332 7.88324 0.333332 17.0999C0.333332 25.4332 6.43333 32.3499 14.4 33.5999V21.9332H10.1667V17.0999H14.4V13.4166C14.4 9.23324 16.8833 6.93324 20.7 6.93324C22.5167 6.93324 24.4167 7.2499 24.4167 7.2499V11.3666H22.3167C20.25 11.3666 19.6 12.6499 19.6 13.9666V17.0999H24.2333L23.4833 21.9332H19.6V33.5999C23.5274 32.9796 27.1037 30.9758 29.6832 27.95C32.2627 24.9242 33.6756 21.076 33.6667 17.0999C33.6667 7.88324 26.1667 0.399902 17 0.399902Z" fill="#F7FBFB"/>
</svg>
