<svg width="40" height="40" viewBox="0 0 40 40" fill="none" xmlns="http://www.w3.org/2000/svg">
<path d="M19.9998 2.99988C13.3656 2.99988 7.99985 8.32088 7.99985 14.8999C7.99985 23.8249 19.9998 36.9999 19.9998 36.9999C19.9998 36.9999 31.9998 23.8249 31.9998 14.8999C31.9998 8.32088 26.6341 2.99988 19.9998 2.99988ZM19.9998 19.1499C18.8632 19.1499 17.7731 18.7021 16.9694 17.9051C16.1657 17.1081 15.7141 16.027 15.7141 14.8999C15.7141 13.7727 16.1657 12.6917 16.9694 11.8947C17.7731 11.0976 18.8632 10.6499 19.9998 10.6499C21.1365 10.6499 22.2266 11.0976 23.0303 11.8947C23.834 12.6917 24.2856 13.7727 24.2856 14.8999C24.2856 16.027 23.834 17.1081 23.0303 17.9051C22.2266 18.7021 21.1365 19.1499 19.9998 19.1499Z" fill="#F7FBFB"/>
</svg>
