<svg width="40" height="40" viewBox="0 0 40 40" fill="none" xmlns="http://www.w3.org/2000/svg">
<path d="M20 11.6667C10.8 11.6667 3.33337 15.4 3.33337 20C3.33337 23.7334 8.23337 26.8834 15 27.95V31.3167C15 32.0667 15.9 32.4334 16.4167 31.9L21.0667 27.25C21.4 26.9167 21.4 26.4 21.0667 26.0667L16.4167 21.4167C16.2992 21.3015 16.1503 21.2237 15.9886 21.193C15.827 21.1624 15.6599 21.1803 15.5084 21.2444C15.3569 21.3086 15.2277 21.4162 15.1373 21.5536C15.0468 21.691 14.9991 21.8522 15 22.0167V24.55C9.75004 23.6167 6.66671 21.3834 6.66671 20C6.66671 18.2334 11.7334 15 20 15C28.2667 15 33.3334 18.2334 33.3334 20C33.3334 21.1 31.3334 22.8 27.8 23.9C27.1167 24.1167 26.6667 24.75 26.6667 25.4667C26.6667 26.5834 27.75 27.4 28.8 27.0667C33.5167 25.6 36.6667 22.9834 36.6667 20C36.6667 15.4 29.2 11.6667 20 11.6667Z" fill="#5B86A1"/>
</svg>
