<svg width="34" height="34" viewBox="0 0 34 34" fill="none" xmlns="http://www.w3.org/2000/svg">
<path d="M10 0.333496H24C29.3333 0.333496 33.6667 4.66683 33.6667 10.0002V24.0002C33.6667 26.5639 32.6482 29.0227 30.8354 30.8355C29.0225 32.6484 26.5638 33.6668 24 33.6668H10C4.66667 33.6668 0.333332 29.3335 0.333332 24.0002V10.0002C0.333332 7.4364 1.35178 4.97765 3.16463 3.1648C4.97748 1.35195 7.43624 0.333496 10 0.333496ZM9.66667 3.66683C8.07537 3.66683 6.54924 4.29897 5.42402 5.42419C4.29881 6.54941 3.66667 8.07553 3.66667 9.66683V24.3335C3.66667 27.6502 6.35 30.3335 9.66667 30.3335H24.3333C25.9246 30.3335 27.4508 29.7014 28.576 28.5761C29.7012 27.4509 30.3333 25.9248 30.3333 24.3335V9.66683C30.3333 6.35016 27.65 3.66683 24.3333 3.66683H9.66667ZM25.75 6.16683C26.3025 6.16683 26.8324 6.38632 27.2231 6.77702C27.6138 7.16772 27.8333 7.69763 27.8333 8.25016C27.8333 8.8027 27.6138 9.3326 27.2231 9.7233C26.8324 10.114 26.3025 10.3335 25.75 10.3335C25.1975 10.3335 24.6676 10.114 24.2769 9.7233C23.8862 9.3326 23.6667 8.8027 23.6667 8.25016C23.6667 7.69763 23.8862 7.16772 24.2769 6.77702C24.6676 6.38632 25.1975 6.16683 25.75 6.16683ZM17 8.66683C19.2101 8.66683 21.3298 9.5448 22.8926 11.1076C24.4554 12.6704 25.3333 14.79 25.3333 17.0002C25.3333 19.2103 24.4554 21.3299 22.8926 22.8927C21.3298 24.4555 19.2101 25.3335 17 25.3335C14.7899 25.3335 12.6702 24.4555 11.1074 22.8927C9.54464 21.3299 8.66667 19.2103 8.66667 17.0002C8.66667 14.79 9.54464 12.6704 11.1074 11.1076C12.6702 9.5448 14.7899 8.66683 17 8.66683ZM17 12.0002C15.6739 12.0002 14.4021 12.5269 13.4645 13.4646C12.5268 14.4023 12 15.6741 12 17.0002C12 18.3262 12.5268 19.598 13.4645 20.5357C14.4021 21.4734 15.6739 22.0002 17 22.0002C18.3261 22.0002 19.5979 21.4734 20.5355 20.5357C21.4732 19.598 22 18.3262 22 17.0002C22 15.6741 21.4732 14.4023 20.5355 13.4646C19.5979 12.5269 18.3261 12.0002 17 12.0002Z" fill="#F7FBFB"/>
</svg>
