<svg width="34" height="34" viewBox="0 0 34 34" fill="none" xmlns="http://www.w3.org/2000/svg">
<path d="M16.99 0.333496C13.6936 0.333496 10.4713 1.31098 7.7305 3.14234C4.98968 4.97369 2.85347 7.57667 1.59201 10.6221C0.330548 13.6675 0.000491947 17.0187 0.643579 20.2517C1.28667 23.4847 2.87401 26.4544 5.20489 28.7853C7.53576 31.1162 10.5055 32.7035 13.7385 33.3466C16.9715 33.9897 20.3226 33.6596 23.3681 32.3982C26.4135 31.1367 29.0165 29.0005 30.8478 26.2597C32.6792 23.5188 33.6567 20.2965 33.6567 17.0002C33.6567 14.8115 33.2256 12.6442 32.388 10.6221C31.5504 8.60001 30.3228 6.76269 28.7751 5.21505C27.2275 3.66741 25.3902 2.43975 23.3681 1.60217C21.346 0.764592 19.1787 0.333496 16.99 0.333496ZM22.29 25.5868C22.2278 25.7425 22.133 25.8831 22.012 25.9992C21.8909 26.1152 21.7465 26.204 21.5883 26.2595C21.4301 26.3151 21.2618 26.3362 21.0948 26.3214C20.9278 26.3065 20.7659 26.2561 20.62 26.1735L16.095 22.6568L13.1917 25.3368C13.1243 25.3866 13.0455 25.4186 12.9625 25.43C12.8795 25.4413 12.7949 25.4317 12.7167 25.4018L13.2733 20.4202L13.29 20.4352L13.3017 20.3368C13.3017 20.3368 21.4433 12.9235 21.775 12.6085C22.1117 12.2935 22 12.2252 22 12.2252C22.02 11.8418 21.3983 12.2252 21.3983 12.2252L10.61 19.1652L6.11833 17.6352C6.11833 17.6352 5.42833 17.3885 5.36333 16.8435C5.295 16.3035 6.14 16.0102 6.14 16.0102L24.0017 8.9135C24.0017 8.9135 25.47 8.26016 25.47 9.3435L22.29 25.5868Z" fill="#F7FBFB"/>
</svg>
